<svg xmlns="http://www.w3.org/2000/svg" style="border: 0px dotted #f00;"  width="26px" height="52px" viewBox="0 0 100 100"   >   <defs>     <radialGradient id="grad1" cx="50%" cy="50%" r="50%" fx="50%" fy="50%">       <stop offset="0%" style="stop-color:rgb(0,0,0);       stop-opacity:0.2" />       <stop offset="100%" style="stop-color:rgb(255,255,255);stop-opacity:0" />     </radialGradient>   </defs>   <ellipse transform="translate(0 -26)" cx="50" cy="95" rx="26" ry="12"  fill="url(#grad1)" />   <path transform="translate(0 -26)" style="fill:#FFA6A6;stroke:#ff0000;stroke-width:6" d="m 49.324,4.814 c -14.332,0 -25.954,11.622 -25.954,25.954 0,5.836 1.929,11.223 5.174,15.556 0.011,0.006 0.016,0.017 0.016,0.022 0.617,0.907 20.496,30.058 20.763,49.422 0.268,-19.364 20.146,-48.515 20.764,-49.422 0.011,-0.016 0.016,-0.022 0.016,-0.022 3.247,-4.333 5.174,-9.72 5.174,-15.556 0,-14.331 -11.62,-25.954 -25.953,-25.954 z"></path>   </svg>